# xmcd
#
# Track frame offsets:
#	150
#	14663
#	28608
#	43390
#	55648
#	72716
#	87065
#	97128
#	110079
#	123608
#	134261
#	151407
#	163553
#	177151
#	189793
#	202467
#	218516
#	233660
#	243846
#	264907
#	284230
#	297171
#	311617
#
# Disc length: 4335 seconds
#
# Revision: 0
# Processed by: cddbd v1.5.2PL0 Copyright (c) Steve Scherf et al.
# Submitted via: audiograbber 1.83.01
#
DISCID=5a10ed17
DTITLE=Various Artist - Jumpin Rhythm And Blues 90s Shag Style Vol 1
DYEAR=1900
DGENRE=
TTITLE0=Mighty Blues Kings - Cadillac Boogie
TTITLE1=Mighty Blues Kings - Meet Me Uptown
TTITLE2=Mighty Blues Kings - Rag Mop
TTITLE3=Mighty Blues Kings - Little Too Late
TTITLE4=Calvin James - Surely I Love You
TTITLE5=Calvin James - Breakin Up The House
TTITLE6=Big Boy Bloater - Reeling and Rocking
TTITLE7=Calvin James - Train Kept A Rollin
TTITLE8=Calvin James - Jumpin From 6 To 6
TTITLE9=Calvin James - Safronia B
TTITLE10=Calvin James - Rocket To The Moon
TTITLE11=Cavin James - Somethings Goin On In My Room
TTITLE12=Big Joe And Dynaflows - Playgirl
TTITLE13=Big Boy Bloater - Your Cheap
TTITLE14=Big Boy Bloater - Chicken And The Hawk
TTITLE15=Billy Boy Arnold - It Should Of Been Me
TTITLE16=Big Boy Bloater - Roberta
TTITLE17=Big Boy Bloater - Down The Road
TTITLE18=Sax Gordon - You Said She Wouldnt But She Did
TTITLE19=Champion Jack Dupree - Drinking Wine Spo Dee O Dee
TTITLE20=Johnny Nocturne Band - Reelin And Rockin
TTITLE21=Johnny Nocturne Band - If Its News To You
TTITLE22=Billy Boy Arnold - Move On Down The Road
EXTD=
EXTT0=
EXTT1=
EXTT2=
EXTT3=
EXTT4=
EXTT5=
EXTT6=
EXTT7=
EXTT8=
EXTT9=
EXTT10=
EXTT11=
EXTT12=
EXTT13=
EXTT14=
EXTT15=
EXTT16=
EXTT17=
EXTT18=
EXTT19=
EXTT20=
EXTT21=
EXTT22=
PLAYORDER=
